<?xml version="1.0" standalone="no"?>
 <!DOCTYPE svg PUBLIC "-//W3C//DTD SVG 1.1//EN" 
 "http://www.w3.org/Graphics/SVG/1.1/DTD/svg11.dtd"> 
<svg
  xmlns:svg="http://www.w3.org/2000/svg"
  xmlns="http://www.w3.org/2000/svg"
  xmlns:xlink="http://www.w3.org/1999/xlink"
  version="1.1"
  width="87.4014mm" height="99.1108mm" viewBox="0.0000 0.0000 87.4014 99.1108">
<title>SVG Image created as compact (2)-B_Cu.svg date 2025/05/30 23:31:16 </title>
  <desc>Image generated by PCBNEW </desc>
<g style="fill:#000000; fill-opacity:1.0000;stroke:#000000; stroke-opacity:1.0000;
stroke-linecap:round; stroke-linejoin:round;"
 transform="translate(0 0) scale(1 1)">
<path style="fill:none; 
stroke:#000000; stroke-width:0.0500; stroke-opacity:1; 
stroke-linecap:round; stroke-linejoin:round;fill:none"
d="M 87.3764,0.6683
0.5764,0.6683
0.5764,99.1082
87.3764,99.1082
Z" /> 
</g>
<g style="fill:#000000; fill-opacity:1.0000; stroke:none;">
<circle cx="30.2164" cy="57.7682" r="0.5000" /> 
</g>
<g style="fill:#000000; fill-opacity:1.0000; stroke:none;">
<circle cx="30.2164" cy="52.7682" r="0.5000" /> 
</g>
<g style="fill:#000000; fill-opacity:1.0000; stroke:none;">
<circle cx="30.2164" cy="55.2682" r="0.5000" /> 
</g>
<g style="fill:none; 
stroke:#000000; stroke-width:2.0000; stroke-opacity:1; 
stroke-linecap:round; stroke-linejoin:round;">
<path d="M37.4664 60.8682
L37.9664 60.8682
" />
<path d="M37.4664 49.6683
L37.9664 49.6683
" />
</g>
<g style="fill:#000000; fill-opacity:1.0000; stroke:none;">
<circle cx="44.7164" cy="57.7682" r="0.5000" /> 
</g>
<g style="fill:#000000; fill-opacity:1.0000; stroke:none;">
<circle cx="44.7164" cy="52.7682" r="0.5000" /> 
</g>
<g style="fill:#000000; fill-opacity:1.0000; stroke:none;">
<circle cx="67.5564" cy="16.9482" r="0.5000" /> 
</g>
<g style="fill:#000000; fill-opacity:1.0000; stroke:none;">
<circle cx="70.0964" cy="16.9482" r="0.5000" /> 
</g>
<g style="fill:#000000; fill-opacity:1.0000; stroke:none;">
<circle cx="7.3764" cy="40.5182" r="0.5000" /> 
</g>
<g style="fill:#000000; fill-opacity:1.0000; stroke:none;">
<circle cx="7.3764" cy="43.0583" r="0.5000" /> 
</g>
<g style="fill:#000000; fill-opacity:1.0000; stroke:none;">
<circle cx="7.3764" cy="45.5983" r="0.5000" /> 
</g>
<g style="fill:#000000; fill-opacity:1.0000; stroke:none;">
<circle cx="7.3764" cy="48.1382" r="0.5000" /> 
</g>
<g style="fill:#000000; fill-opacity:1.0000; stroke:none;">
<circle cx="7.3764" cy="50.6782" r="0.5000" /> 
</g>
<g style="fill:#000000; fill-opacity:1.0000; stroke:none;">
<circle cx="7.3764" cy="53.2182" r="0.5000" /> 
</g>
<g style="fill:#000000; fill-opacity:1.0000; stroke:none;">
<circle cx="7.3764" cy="55.7582" r="0.5000" /> 
</g>
<g style="fill:#000000; fill-opacity:1.0000; stroke:none;">
<circle cx="7.3764" cy="58.2982" r="0.5000" /> 
</g>
<g style="fill:#000000; fill-opacity:1.0000; stroke:none;">
<circle cx="7.3764" cy="60.8382" r="0.5000" /> 
</g>
<g style="fill:#000000; fill-opacity:1.0000; stroke:none;">
<circle cx="7.3764" cy="63.3782" r="0.5000" /> 
</g>
<g style="fill:#000000; fill-opacity:1.0000; stroke:none;">
<circle cx="7.3764" cy="65.9183" r="0.5000" /> 
</g>
<g style="fill:#000000; fill-opacity:1.0000; stroke:none;">
<circle cx="7.3764" cy="68.4582" r="0.5000" /> 
</g>
<g style="fill:#000000; fill-opacity:1.0000; stroke:none;">
<circle cx="7.3764" cy="70.9982" r="0.5000" /> 
</g>
<g style="fill:#000000; fill-opacity:1.0000; stroke:none;">
<circle cx="7.3764" cy="73.5382" r="0.5000" /> 
</g>
<g style="fill:#000000; fill-opacity:1.0000; stroke:none;">
<circle cx="80.3364" cy="5.8483" r="2.0000" /> 
</g>
<g style="fill:#000000; fill-opacity:1.0000; stroke:none;">
<circle cx="44.2514" cy="16.6582" r="0.5500" /> 
</g>
<g style="fill:#000000; fill-opacity:1.0000; stroke:none;">
<circle cx="44.2514" cy="19.1982" r="0.5500" /> 
</g>
<g style="fill:#000000; fill-opacity:1.0000; stroke:none;">
<circle cx="44.2514" cy="21.7383" r="0.5500" /> 
</g>
<g style="fill:#000000; fill-opacity:1.0000; stroke:none;">
<circle cx="4.2564" cy="93.3182" r="2.0000" /> 
</g>
<g style="fill:#000000; fill-opacity:1.0000; stroke:none;">
<circle cx="13.0864" cy="65.2882" r="0.4000" /> 
</g>
<g style="fill:#000000; fill-opacity:1.0000; stroke:none;">
<circle cx="13.0864" cy="57.6683" r="0.4000" /> 
</g>
<g style="fill:#000000; fill-opacity:1.0000; stroke:none;">
<circle cx="20.4864" cy="54.6882" r="0.4000" /> 
</g>
<g style="fill:#000000; fill-opacity:1.0000; stroke:none;">
<circle cx="12.8664" cy="54.6882" r="0.4000" /> 
</g>
<g style="fill:#000000; fill-opacity:1.0000; stroke:none;">
<circle cx="63.7064" cy="34.7282" r="0.6000" /> 
</g>
<g style="fill:#000000; fill-opacity:1.0000; stroke:none;">
<circle cx="63.7064" cy="37.2682" r="0.6000" /> 
</g>
<g style="fill:#000000; fill-opacity:1.0000; stroke:none;">
<circle cx="63.7064" cy="39.8083" r="0.6000" /> 
</g>
<g style="fill:#000000; fill-opacity:1.0000; stroke:none;">
<circle cx="6.6564" cy="5.9582" r="2.0000" /> 
</g>
<g style="fill:#000000; fill-opacity:1.0000; stroke:none;">
<circle cx="37.3964" cy="64.9682" r="0.3000" /> 
</g>
<g style="fill:#000000; fill-opacity:1.0000; stroke:none;">
<circle cx="39.9364" cy="64.9682" r="0.3500" /> 
</g>
<g style="fill:#000000; fill-opacity:1.0000; stroke:none;">
<circle cx="42.4764" cy="64.9682" r="0.3500" /> 
</g>
<g style="fill:#000000; fill-opacity:1.0000; stroke:none;">
<circle cx="45.0164" cy="64.9682" r="0.3500" /> 
</g>
<g style="fill:#000000; fill-opacity:1.0000; stroke:none;">
<circle cx="47.5564" cy="64.9682" r="0.3500" /> 
</g>
<g style="fill:#000000; fill-opacity:1.0000; stroke:none;">
<circle cx="50.0964" cy="64.9682" r="0.3500" /> 
</g>
<g style="fill:#000000; fill-opacity:1.0000; stroke:none;">
<circle cx="52.6364" cy="64.9682" r="0.3500" /> 
</g>
<g style="fill:#000000; fill-opacity:1.0000; stroke:none;">
<circle cx="55.1764" cy="64.9682" r="0.3500" /> 
</g>
<g style="fill:#000000; fill-opacity:1.0000; stroke:none;">
<circle cx="57.7164" cy="64.9682" r="0.3500" /> 
</g>
<g style="fill:#000000; fill-opacity:1.0000; stroke:none;">
<circle cx="60.2564" cy="64.9682" r="0.3500" /> 
</g>
<g style="fill:#000000; fill-opacity:1.0000; stroke:none;">
<circle cx="62.7964" cy="64.9682" r="0.3500" /> 
</g>
<g style="fill:#000000; fill-opacity:1.0000; stroke:none;">
<circle cx="65.3364" cy="64.9682" r="0.3500" /> 
</g>
<g style="fill:#000000; fill-opacity:1.0000; stroke:none;">
<circle cx="67.8764" cy="64.9682" r="0.3500" /> 
</g>
<g style="fill:#000000; fill-opacity:1.0000; stroke:none;">
<circle cx="70.4164" cy="64.9682" r="0.3500" /> 
</g>
<g style="fill:#000000; fill-opacity:1.0000; stroke:none;">
<circle cx="72.9564" cy="64.9682" r="0.3500" /> 
</g>
<g style="fill:#000000; fill-opacity:1.0000; stroke:none;">
<circle cx="72.9564" cy="80.2082" r="0.3500" /> 
</g>
<g style="fill:#000000; fill-opacity:1.0000; stroke:none;">
<circle cx="70.4164" cy="80.2082" r="0.3500" /> 
</g>
<g style="fill:#000000; fill-opacity:1.0000; stroke:none;">
<circle cx="67.8764" cy="80.2082" r="0.3500" /> 
</g>
<g style="fill:#000000; fill-opacity:1.0000; stroke:none;">
<circle cx="65.3364" cy="80.2082" r="0.3500" /> 
</g>
<g style="fill:#000000; fill-opacity:1.0000; stroke:none;">
<circle cx="62.7964" cy="80.2082" r="0.3500" /> 
</g>
<g style="fill:#000000; fill-opacity:1.0000; stroke:none;">
<circle cx="60.2564" cy="80.2082" r="0.3500" /> 
</g>
<g style="fill:#000000; fill-opacity:1.0000; stroke:none;">
<circle cx="57.7164" cy="80.2082" r="0.3500" /> 
</g>
<g style="fill:#000000; fill-opacity:1.0000; stroke:none;">
<circle cx="55.1764" cy="80.2082" r="0.3500" /> 
</g>
<g style="fill:#000000; fill-opacity:1.0000; stroke:none;">
<circle cx="52.6364" cy="80.2082" r="0.3500" /> 
</g>
<g style="fill:#000000; fill-opacity:1.0000; stroke:none;">
<circle cx="50.0964" cy="80.2082" r="0.3500" /> 
</g>
<g style="fill:#000000; fill-opacity:1.0000; stroke:none;">
<circle cx="47.5564" cy="80.2082" r="0.3500" /> 
</g>
<g style="fill:#000000; fill-opacity:1.0000; stroke:none;">
<circle cx="45.0164" cy="80.2082" r="0.3500" /> 
</g>
<g style="fill:#000000; fill-opacity:1.0000; stroke:none;">
<circle cx="42.4764" cy="80.2082" r="0.3500" /> 
</g>
<g style="fill:#000000; fill-opacity:1.0000; stroke:none;">
<circle cx="39.9364" cy="80.2082" r="0.3500" /> 
</g>
<g style="fill:#000000; fill-opacity:1.0000; stroke:none;">
<circle cx="37.3964" cy="80.2082" r="0.3500" /> 
</g>
<g style="fill:#000000; fill-opacity:1.0000; stroke:none;">
<circle cx="20.4864" cy="51.6382" r="0.4000" /> 
</g>
<g style="fill:#000000; fill-opacity:1.0000; stroke:none;">
<circle cx="12.8664" cy="51.6382" r="0.4000" /> 
</g>
<g style="fill:#000000; fill-opacity:1.0000; stroke:none;">
<circle cx="31.6364" cy="22.4982" r="0.4000" /> 
</g>
<g style="fill:#000000; fill-opacity:1.0000; stroke:none;">
<circle cx="31.6364" cy="20.4982" r="0.4000" /> 
</g>
<g style="fill:none; 
stroke:#000000; stroke-width:1.0000; stroke-opacity:1; 
stroke-linecap:round; stroke-linejoin:round;">
<path d="M19.2664 19.7682
L19.2664 17.7682
" />
<path d="M13.2664 19.7682
L13.2664 17.7682
" />
<path d="M15.2664 14.0682
L17.2664 14.0682
" />
</g>
<g style="fill:#000000; fill-opacity:1.0000; stroke:none;">
<circle cx="51.4314" cy="16.8732" r="0.5000" /> 
</g>
<g style="fill:#000000; fill-opacity:1.0000; stroke:none;">
<circle cx="53.9714" cy="16.8732" r="0.5000" /> 
</g>
<g style="fill:#000000; fill-opacity:1.0000; stroke:none;">
<circle cx="56.5114" cy="16.8732" r="0.5000" /> 
</g>
<g style="fill:#000000; fill-opacity:1.0000; stroke:none;">
<circle cx="50.5164" cy="46.2482" r="0.4000" /> 
</g>
<g style="fill:#000000; fill-opacity:1.0000; stroke:none;">
<circle cx="50.5164" cy="38.6283" r="0.4000" /> 
</g>
<g style="fill:#000000; fill-opacity:1.0000; stroke:none;">
<circle cx="31.4164" cy="12.9283" r="0.4000" /> 
</g>
<g style="fill:#000000; fill-opacity:1.0000; stroke:none;">
<circle cx="31.4164" cy="14.9282" r="0.4000" /> 
</g>
<g style="fill:#000000; fill-opacity:1.0000; stroke:none;">
<circle cx="68.2964" cy="55.4382" r="0.5500" /> 
</g>
<g style="fill:#000000; fill-opacity:1.0000; stroke:none;">
<circle cx="74.7964" cy="55.4382" r="0.5500" /> 
</g>
<g style="fill:#000000; fill-opacity:1.0000; stroke:none;">
<circle cx="68.2964" cy="50.9382" r="0.5500" /> 
</g>
<g style="fill:#000000; fill-opacity:1.0000; stroke:none;">
<circle cx="74.7964" cy="50.9382" r="0.5500" /> 
</g>
<g style="fill:#000000; fill-opacity:1.0000; stroke:none;">
<circle cx="55.1764" cy="55.3982" r="0.5500" /> 
</g>
<g style="fill:#000000; fill-opacity:1.0000; stroke:none;">
<circle cx="61.6764" cy="55.3982" r="0.5500" /> 
</g>
<g style="fill:#000000; fill-opacity:1.0000; stroke:none;">
<circle cx="55.1764" cy="50.8982" r="0.5500" /> 
</g>
<g style="fill:#000000; fill-opacity:1.0000; stroke:none;">
<circle cx="61.6764" cy="50.8982" r="0.5500" /> 
</g>
<g style="fill:#000000; fill-opacity:1.0000; stroke:none;">
<circle cx="31.2764" cy="27.9383" r="0.5000" /> 
</g>
<g style="fill:#000000; fill-opacity:1.0000; stroke:none;">
<circle cx="28.7364" cy="27.9383" r="0.5000" /> 
</g>
<g style="fill:#000000; fill-opacity:1.0000; stroke:none;">
<circle cx="26.1964" cy="27.9383" r="0.5000" /> 
</g>
<g style="fill:#000000; fill-opacity:1.0000; stroke:none;">
<circle cx="23.6564" cy="27.9383" r="0.5000" /> 
</g>
<g style="fill:#000000; fill-opacity:1.0000; stroke:none;">
<circle cx="81.1164" cy="92.4882" r="2.0000" /> 
</g>
<g style="fill:#000000; fill-opacity:1.0000; stroke:none;">
<circle cx="20.4864" cy="48.5882" r="0.4000" /> 
</g>
<g style="fill:#000000; fill-opacity:1.0000; stroke:none;">
<circle cx="12.8664" cy="48.5882" r="0.4000" /> 
</g>
<g style="fill:#000000; fill-opacity:1.0000; stroke:none;">
<circle cx="62.1164" cy="11.3282" r="0.5500" /> 
</g>
<g style="fill:#000000; fill-opacity:1.0000; stroke:none;">
<circle cx="62.1164" cy="24.0282" r="0.5500" /> 
</g>
<g style="fill:#000000; fill-opacity:1.0000; stroke:none;">
<circle cx="20.4864" cy="45.5882" r="0.4000" /> 
</g>
<g style="fill:#000000; fill-opacity:1.0000; stroke:none;">
<circle cx="12.8664" cy="45.5882" r="0.4000" /> 
</g>
<g style="fill:#000000; fill-opacity:1.0000; stroke:none;">
<circle cx="54.1164" cy="42.2782" r="0.4000" /> 
</g>
<g style="fill:#000000; fill-opacity:1.0000; stroke:none;">
<circle cx="54.1164" cy="34.6582" r="0.4000" /> 
<path style="fill:#000000; fill-opacity:1.0000; stroke:none;fill-rule:evenodd;"
d="M 29.2164,56.7682
29.2164,58.7682
31.2164,58.7682
31.2164,56.7682
Z" /> 
</g>
<g style="fill:#000000; fill-opacity:1.0000; stroke:none;">
<circle cx="30.2164" cy="52.7682" r="1.0000" /> 
</g>
<g style="fill:#000000; fill-opacity:1.0000; stroke:none;">
<circle cx="30.2164" cy="55.2682" r="1.0000" /> 
<path style="fill:#000000; fill-opacity:1.0000; stroke:none;fill-rule:evenodd;"
d="M 36.2164,59.6182
36.2164,62.1182
39.2164,62.1182
39.2164,59.6182
Z" /> 
<path style="fill:#000000; fill-opacity:1.0000; stroke:none;fill-rule:evenodd;"
d="M 36.2164,48.4183
36.2164,50.9183
39.2164,50.9183
39.2164,48.4183
Z" /> 
</g>
<g style="fill:#000000; fill-opacity:1.0000; stroke:none;">
<circle cx="44.7164" cy="57.7682" r="1.0000" /> 
</g>
<g style="fill:#000000; fill-opacity:1.0000; stroke:none;">
<circle cx="44.7164" cy="52.7682" r="1.0000" /> 
<path style="fill:#000000; fill-opacity:1.0000; stroke:none;fill-rule:evenodd;"
d="M 68.4064,16.0983
66.7064,16.0983
66.7064,17.7982
68.4064,17.7982
Z" /> 
</g>
<g style="fill:#000000; fill-opacity:1.0000; stroke:none;">
<circle cx="70.0964" cy="16.9482" r="0.8500" /> 
<circle cx="7.3764" cy="40.5182" r="0.8500" /> 
<circle cx="7.3764" cy="43.0583" r="0.8500" /> 
<circle cx="7.3764" cy="45.5983" r="0.8500" /> 
<circle cx="7.3764" cy="48.1382" r="0.8500" /> 
<circle cx="7.3764" cy="50.6782" r="0.8500" /> 
<circle cx="7.3764" cy="53.2182" r="0.8500" /> 
<circle cx="7.3764" cy="55.7582" r="0.8500" /> 
<circle cx="7.3764" cy="58.2982" r="0.8500" /> 
<circle cx="7.3764" cy="60.8382" r="0.8500" /> 
<circle cx="7.3764" cy="63.3782" r="0.8500" /> 
<circle cx="7.3764" cy="65.9183" r="0.8500" /> 
<circle cx="7.3764" cy="68.4582" r="0.8500" /> 
<circle cx="7.3764" cy="70.9982" r="0.8500" /> 
<path style="fill:#000000; fill-opacity:1.0000; stroke:none;fill-rule:evenodd;"
d="M 6.5264,72.6882
6.5264,74.3882
8.2264,74.3882
8.2264,72.6882
Z" /> 
<path style="fill:#000000; fill-opacity:1.0000; stroke:none;fill-rule:evenodd;"
d="M 45.2514,15.7058
43.2514,15.7058
43.2514,17.6107
45.2514,17.6107
Z" /> 
</g>
<g style="fill:none; 
stroke:#000000; stroke-width:1.9050; stroke-opacity:1; 
stroke-linecap:round; stroke-linejoin:round;">
<path d="M44.2039 19.1982
L44.2989 19.1982
" />
<path d="M44.2039 21.7383
L44.2989 21.7383
" />
</g>
<g style="fill:#000000; fill-opacity:1.0000; stroke:none;">
<circle cx="13.0864" cy="65.2882" r="0.8000" /> 
</g>
<g style="fill:#000000; fill-opacity:1.0000; stroke:none;">
<circle cx="13.0864" cy="57.6683" r="0.8000" /> 
<circle cx="20.4864" cy="54.6882" r="0.8000" /> 
</g>
<g style="fill:#000000; fill-opacity:1.0000; stroke:none;">
<circle cx="12.8664" cy="54.6882" r="0.8000" /> 
<path style="fill:#000000; fill-opacity:1.0000; stroke:none;fill-rule:evenodd;"
d="M 64.7064,33.7757
62.7064,33.7757
62.7064,35.6807
64.7064,35.6807
Z" /> 
</g>
<g style="fill:none; 
stroke:#000000; stroke-width:1.9050; stroke-opacity:1; 
stroke-linecap:round; stroke-linejoin:round;">
<path d="M63.6589 37.2682
L63.7539 37.2682
" />
<path d="M63.6589 39.8083
L63.7539 39.8083
" />
<path style="fill:#000000; fill-opacity:1.0000; stroke:none;fill-rule:evenodd;"
d="M 38.1964,63.3182
36.5964,63.3182
36.5964,66.6183
38.1964,66.6183
Z" /> 
</g>
<g style="fill:none; 
stroke:#000000; stroke-width:1.8000; stroke-opacity:1; 
stroke-linecap:round; stroke-linejoin:round;">
<path d="M39.9364 64.2182
L39.9364 65.7182
" />
<path d="M42.4764 64.2182
L42.4764 65.7182
" />
<path d="M45.0164 64.2182
L45.0164 65.7182
" />
<path d="M47.5564 64.2182
L47.5564 65.7182
" />
<path d="M50.0964 64.2182
L50.0964 65.7182
" />
<path d="M52.6364 64.2182
L52.6364 65.7182
" />
<path d="M55.1764 64.2182
L55.1764 65.7182
" />
<path d="M57.7164 64.2182
L57.7164 65.7182
" />
<path d="M60.2564 64.2182
L60.2564 65.7182
" />
<path d="M62.7964 64.2182
L62.7964 65.7182
" />
<path d="M65.3364 64.2182
L65.3364 65.7182
" />
<path d="M67.8764 64.2182
L67.8764 65.7182
" />
<path d="M70.4164 64.2182
L70.4164 65.7182
" />
<path d="M72.9564 64.2182
L72.9564 65.7182
" />
<path d="M72.9564 79.4582
L72.9564 80.9582
" />
<path d="M70.4164 79.4582
L70.4164 80.9582
" />
<path d="M67.8764 79.4582
L67.8764 80.9582
" />
<path d="M65.3364 79.4582
L65.3364 80.9582
" />
<path d="M62.7964 79.4582
L62.7964 80.9582
" />
<path d="M60.2564 79.4582
L60.2564 80.9582
" />
<path d="M57.7164 79.4582
L57.7164 80.9582
" />
<path d="M55.1764 79.4582
L55.1764 80.9582
" />
<path d="M52.6364 79.4582
L52.6364 80.9582
" />
<path d="M50.0964 79.4582
L50.0964 80.9582
" />
<path d="M47.5564 79.4582
L47.5564 80.9582
" />
<path d="M45.0164 79.4582
L45.0164 80.9582
" />
<path d="M42.4764 79.4582
L42.4764 80.9582
" />
<path d="M39.9364 79.4582
L39.9364 80.9582
" />
<path d="M37.3964 79.4582
L37.3964 80.9582
" />
</g>
<g style="fill:#000000; fill-opacity:1.0000; stroke:none;">
<circle cx="20.4864" cy="51.6382" r="0.8000" /> 
</g>
<g style="fill:#000000; fill-opacity:1.0000; stroke:none;">
<circle cx="12.8664" cy="51.6382" r="0.8000" /> 
<path style="fill:#000000; fill-opacity:1.0000; stroke:none;fill-rule:evenodd;"
d="M 30.8364,23.2982
32.4364,23.2982
32.4364,21.6982
30.8364,21.6982
Z" /> 
<circle cx="31.6364" cy="20.4982" r="0.8000" /> 
<path style="fill:#000000; fill-opacity:1.0000; stroke:none;fill-rule:evenodd;"
d="M 17.5164,17.0182
17.5164,20.5182
21.0164,20.5182
21.0164,17.0182
Z" /> 
<path style="fill:#000000; fill-opacity:1.0000; stroke:none;fill-rule:evenodd;"
d="M 11.7664,19.7682
11.7819,19.9199
11.8367,20.0852
11.9281,20.2334
12.0512,20.3566
12.1994,20.4480
12.3647,20.5028
12.5164,20.5182
14.0164,20.5182
14.1681,20.5028
14.3334,20.4480
14.4816,20.3566
14.6047,20.2334
14.6961,20.0852
14.7509,19.9199
14.7664,19.7682
14.7664,17.7682
14.7509,17.6166
14.6961,17.4513
14.6047,17.3031
14.4816,17.1799
14.3334,17.0885
14.1681,17.0337
14.0164,17.0182
12.5164,17.0182
12.3647,17.0337
12.1994,17.0885
12.0512,17.1799
11.9281,17.3031
11.8367,17.4513
11.7819,17.6166
11.7664,17.7682
Z" /> 
<path style="fill:#000000; fill-opacity:1.0000; stroke:none;fill-rule:evenodd;"
d="M 14.5164,14.9432
14.5244,15.0614
14.5701,15.2450
14.6541,15.4145
14.7727,15.5620
14.9202,15.6805
15.0897,15.7646
15.2733,15.8102
15.3914,15.8182
17.1414,15.8182
17.2595,15.8102
17.4431,15.7646
17.6126,15.6805
17.7601,15.5620
17.8787,15.4145
17.9627,15.2450
18.0084,15.0614
18.0164,14.9432
18.0164,13.1932
18.0084,13.0751
17.9627,12.8915
17.8787,12.7220
17.7601,12.5745
17.6126,12.4560
17.4431,12.3719
17.2595,12.3263
17.1414,12.3182
15.3914,12.3182
15.2733,12.3263
15.0897,12.3719
14.9202,12.4560
14.7727,12.5745
14.6541,12.7220
14.5701,12.8915
14.5244,13.0751
14.5164,13.1932
Z" /> 
<path style="fill:#000000; fill-opacity:1.0000; stroke:none;fill-rule:evenodd;"
d="M 52.2814,16.0233
50.5814,16.0233
50.5814,17.7233
52.2814,17.7233
Z" /> 
</g>
<g style="fill:#000000; fill-opacity:1.0000; stroke:none;">
<circle cx="53.9714" cy="16.8732" r="0.8500" /> 
<circle cx="56.5114" cy="16.8732" r="0.8500" /> 
<circle cx="50.5164" cy="46.2482" r="0.8000" /> 
</g>
<g style="fill:#000000; fill-opacity:1.0000; stroke:none;">
<circle cx="50.5164" cy="38.6283" r="0.8000" /> 
<path style="fill:#000000; fill-opacity:1.0000; stroke:none;fill-rule:evenodd;"
d="M 32.2164,12.1282
30.6164,12.1282
30.6164,13.7282
32.2164,13.7282
Z" /> 
<circle cx="31.4164" cy="14.9282" r="0.8000" /> 
</g>
<g style="fill:#000000; fill-opacity:1.0000; stroke:none;">
<circle cx="68.2964" cy="55.4382" r="1.0000" /> 
</g>
<g style="fill:#000000; fill-opacity:1.0000; stroke:none;">
<circle cx="74.7964" cy="55.4382" r="1.0000" /> 
</g>
<g style="fill:#000000; fill-opacity:1.0000; stroke:none;">
<circle cx="68.2964" cy="50.9382" r="1.0000" /> 
</g>
<g style="fill:#000000; fill-opacity:1.0000; stroke:none;">
<circle cx="74.7964" cy="50.9382" r="1.0000" /> 
</g>
<g style="fill:#000000; fill-opacity:1.0000; stroke:none;">
<circle cx="55.1764" cy="55.3982" r="1.0000" /> 
</g>
<g style="fill:#000000; fill-opacity:1.0000; stroke:none;">
<circle cx="61.6764" cy="55.3982" r="1.0000" /> 
</g>
<g style="fill:#000000; fill-opacity:1.0000; stroke:none;">
<circle cx="55.1764" cy="50.8982" r="1.0000" /> 
</g>
<g style="fill:#000000; fill-opacity:1.0000; stroke:none;">
<circle cx="61.6764" cy="50.8982" r="1.0000" /> 
<path style="fill:#000000; fill-opacity:1.0000; stroke:none;fill-rule:evenodd;"
d="M 30.4264,28.7882
32.1264,28.7882
32.1264,27.0882
30.4264,27.0882
Z" /> 
</g>
<g style="fill:#000000; fill-opacity:1.0000; stroke:none;">
<circle cx="28.7364" cy="27.9383" r="0.8500" /> 
<circle cx="26.1964" cy="27.9383" r="0.8500" /> 
<circle cx="23.6564" cy="27.9383" r="0.8500" /> 
<circle cx="20.4864" cy="48.5882" r="0.8000" /> 
</g>
<g style="fill:#000000; fill-opacity:1.0000; stroke:none;">
<circle cx="12.8664" cy="48.5882" r="0.8000" /> 
<path style="fill:#000000; fill-opacity:1.0000; stroke:none;fill-rule:evenodd;"
d="M 63.2164,10.2282
61.0164,10.2282
61.0164,12.4283
63.2164,12.4283
Z" /> 
<circle cx="62.1164" cy="24.0282" r="1.1000" /> 
<circle cx="20.4864" cy="45.5882" r="0.8000" /> 
</g>
<g style="fill:#000000; fill-opacity:1.0000; stroke:none;">
<circle cx="12.8664" cy="45.5882" r="0.8000" /> 
<circle cx="54.1164" cy="42.2782" r="0.8000" /> 
</g>
<g style="fill:#000000; fill-opacity:1.0000; stroke:none;">
<circle cx="54.1164" cy="34.6582" r="0.8000" /> 
<circle cx="11.0964" cy="77.0982" r="1.0000" /> 
</g>
<g style="fill:#000000; fill-opacity:1.0000; stroke:none;">
<circle cx="33.1364" cy="77.1082" r="1.0000" /> 
</g>
<g style="fill:#000000; fill-opacity:1.0000; stroke:none;">
<circle cx="29.8964" cy="73.3582" r="1.0000" /> 
</g>
<g style="fill:#000000; fill-opacity:1.0000; stroke:none;">
<circle cx="20.8014" cy="73.0832" r="1.0000" /> 
</g>
<g style="fill:#000000; fill-opacity:1.0000; stroke:none;">
<circle cx="28.4764" cy="40.0782" r="1.0000" /> 
</g>
<g style="fill:#000000; fill-opacity:1.0000; stroke:none;">
<circle cx="22.7864" cy="40.0182" r="1.0000" /> 
</g>
<g style="fill:#000000; fill-opacity:1.0000; stroke:none;">
<circle cx="20.8864" cy="31.4482" r="1.0000" /> 
</g>
<g style="fill:#000000; fill-opacity:1.0000; stroke:none;">
<circle cx="35.8764" cy="31.3182" r="1.0000" /> 
</g>
<g style="fill:#000000; fill-opacity:1.0000; stroke:none;">
<circle cx="78.1764" cy="28.0083" r="1.0000" /> 
</g>
<g style="fill:#000000; fill-opacity:1.0000; stroke:none;">
<circle cx="71.5064" cy="27.9982" r="1.0000" /> 
</g>
<g style="fill:none; 
stroke:#000000; stroke-width:1.0000; stroke-opacity:1; 
stroke-linecap:round; stroke-linejoin:round;">
<path d="M22.8293 74.3611
L22.8293 50.9311
" />
<path d="M34.6764 86.2082
L22.8293 74.3611
" />
<path d="M22.8293 50.9311
L20.4864 48.5882
" />
<path d="M55.1764 83.9982
L52.9664 86.2082
" />
<path d="M52.9664 86.2082
L34.6764 86.2082
" />
<path d="M55.1764 80.2082
L55.1764 83.9982
" />
<path d="M4.2364 74.6882
L4.2364 43.6582
" />
<path d="M6.6764 77.1282
L4.2364 74.6882
" />
<path d="M11.0664 77.1282
L6.6764 77.1282
" />
<path d="M4.2364 43.6582
L7.3764 40.5182
" />
<path d="M62.2964 91.0182
L70.4164 82.8982
" />
<path d="M32.2764 91.0182
L62.2964 91.0182
" />
<path d="M15.6164 63.6782
L15.6164 74.3582
" />
<path d="M15.6164 74.3582
L32.2764 91.0182
" />
<path d="M70.4164 82.8982
L70.4164 80.2082
" />
<path d="M7.3764 58.2982
L10.2364 58.2982
" />
<path d="M10.2364 58.2982
L15.6164 63.6782
" />
<path d="M29.0064 10.6182
L29.0564 10.5682
" />
<path d="M14.7464 10.6182
L29.0064 10.6182
" />
<path d="M13.2264 18.7282
L13.2264 12.1382
" />
<path d="M13.2664 18.7682
L13.2264 18.7282
" />
<path d="M13.2264 12.1382
L14.7464 10.6182
" />
<path d="M17.6064 54.5182
L20.4864 51.6382
" />
<path d="M17.6064 57.1582
L17.6064 54.5182
" />
<path d="M17.6164 57.1683
L17.6064 57.1582
" />
<path d="M57.7164 86.0282
L54.8664 88.8782
" />
<path d="M54.8664 88.8782
L33.3564 88.8782
" />
<path d="M17.6164 73.1382
L17.6164 57.1683
" />
<path d="M57.7164 80.2082
L57.7164 86.0282
" />
<path d="M33.3564 88.8782
L17.6164 73.1382
" />
<path d="M51.1164 83.8683
L52.6364 82.3482
" />
<path d="M36.5064 83.8683
L51.1164 83.8683
" />
<path d="M24.4964 49.5983
L24.4964 71.8582
" />
<path d="M24.4964 71.8582
L36.5064 83.8683
" />
<path d="M20.4864 45.5882
L24.4964 49.5983
" />
<path d="M52.6364 82.3482
L52.6364 80.2082
" />
<path d="M20.4864 72.7682
L20.4864 54.6882
" />
<path d="M20.8014 73.0832
L20.4864 72.7682
" />
<path d="M10.4564 39.9782
L7.3764 43.0583
" />
<path d="M22.7464 39.9782
L10.4564 39.9782
" />
<path d="M22.7864 40.0182
L22.7464 39.9782
" />
<path d="M11.6964 31.4482
L7.3764 35.7683
" />
<path d="M7.3764 35.7683
L7.3764 40.5182
" />
<path d="M20.8864 31.4482
L11.6964 31.4482
" />
<path d="M28.7364 33.4282
L31.8264 36.5183
" />
<path d="M28.7364 27.9383
L28.7364 33.4282
" />
<path d="M31.8264 36.5183
L31.8264 41.1882
" />
<path d="M43.4914 22.4982
L35.9664 22.4982
" />
<path d="M44.2514 21.7383
L43.4914 22.4982
" />
<path d="M73.3964 24.1182
L74.8764 22.6382
" />
<path d="M62.2064 24.1182
L73.3964 24.1182
" />
<path d="M74.8764 22.6382
L74.8764 19.1382
" />
<path d="M74.8764 35.5183
L74.8764 22.6382
" />
<path d="M62.1164 24.0282
L62.2064 24.1182
" />
<path d="M51.9964 34.6582
L50.5164 36.1382
" />
<path d="M54.1164 34.6582
L51.9964 34.6582
" />
<path d="M50.5164 36.1382
L50.5164 38.6283
" />
<path d="M65.3364 78.7782
L65.3364 80.2082
" />
<path d="M80.7964 63.3182
L65.3364 78.7782
" />
<path d="M73.1064 7.8482
L80.7964 15.5382
" />
<path d="M14.2064 7.8482
L73.1064 7.8482
" />
<path d="M80.7964 15.5382
L80.7964 63.3182
" />
<path d="M10.0764 23.1182
L10.0764 11.9782
" />
<path d="M14.8964 27.9383
L10.0764 23.1182
" />
<path d="M10.0764 11.9782
L14.2064 7.8482
" />
<path d="M23.6564 27.9383
L14.8964 27.9383
" />
<path d="M65.1264 73.3582
L70.4164 68.0682
" />
<path d="M29.8964 73.3582
L65.1264 73.3582
" />
<path d="M70.4164 68.0682
L70.4164 64.9682
" />
<path d="M45.0164 78.6282
L45.0164 80.2082
" />
<path d="M33.1364 77.1082
L43.4964 77.1082
" />
<path d="M43.4964 77.1082
L45.0164 78.6282
" />
<path d="M57.7164 68.9682
L57.7164 64.9682
" />
<path d="M26.2064 69.4582
L28.3164 71.5682
" />
<path d="M55.1164 71.5682
L57.7164 68.9682
" />
<path d="M26.2064 27.9482
L26.2064 69.4582
" />
<path d="M28.3164 71.5682
L55.1164 71.5682
" />
<path d="M26.1964 27.9383
L26.2064 27.9482
" />
<path d="M31.8264 38.7982
L31.8264 41.1882
" />
<path d="M28.4764 40.0782
L30.5464 40.0782
" />
<path d="M30.5464 40.0782
L31.8264 38.7982
" />
<path d="M23.6664 18.7682
L26.2664 21.3682
" />
<path d="M19.2664 18.7682
L23.6664 18.7682
" />
<path d="M13.0864 75.8182
L13.0864 65.2882
" />
<path d="M30.0064 92.7382
L13.0864 75.8182
" />
<path d="M64.5164 92.7382
L30.0064 92.7382
" />
<path d="M72.9564 84.2982
L64.5164 92.7382
" />
<path d="M72.9564 80.2082
L72.9564 84.2982
" />
<path d="M7.3764 55.7582
L11.1764 55.7582
" />
<path d="M11.1764 55.7582
L13.0864 57.6683
" />
<path d="M11.3964 53.2182
L12.8664 54.6882
" />
<path d="M7.3764 53.2182
L11.3964 53.2182
" />
<path d="M7.3764 50.6782
L11.9064 50.6782
" />
<path d="M11.9064 50.6782
L12.8664 51.6382
" />
<path d="M12.4164 48.1382
L12.8664 48.5882
" />
<path d="M7.3764 48.1382
L12.4164 48.1382
" />
<path d="M7.3764 45.5983
L12.8564 45.5983
" />
<path d="M12.8564 45.5983
L12.8664 45.5882
" />
<path d="M37.3064 19.1982
L32.9364 19.1982
" />
<path d="M51.4314 18.6232
L50.8164 19.2383
" />
<path d="M26.2664 21.3682
L26.2664 25.4682
" />
<path d="M54.1164 42.2782
L54.1164 49.8382
" />
<path d="M27.3864 20.2482
L26.2664 21.3682
" />
<path d="M37.9864 19.1982
L40.2664 19.1982
" />
<path d="M44.7164 45.3083
L44.7164 47.8682
" />
<path d="M27.5064 20.2482
L31.3864 20.2482
" />
<path d="M31.8264 41.1882
L30.7164 42.2982
" />
<path d="M31.3864 20.2482
L31.6364 20.4982
" />
<path d="M44.2514 19.1982
L40.2664 19.1982
" />
<path d="M27.3864 20.2482
L27.4464 20.3082
" />
<path d="M36.7764 55.2682
L30.2164 55.2682
" />
<path d="M54.1164 49.8382
L55.1764 50.8982
" />
<path d="M30.7164 42.2982
L47.7264 42.2982
" />
<path d="M45.0164 64.9682
L45.0164 63.5082
" />
<path d="M55.8064 39.8083
L54.1164 41.4982
" />
<path d="M44.7164 52.7682
L44.7164 47.8682
" />
<path d="M29.7364 43.2482
L27.8464 45.1382
" />
<path d="M50.8164 19.2383
L44.2914 19.2383
" />
<path d="M32.9364 19.1982
L31.6364 20.4982
" />
<path d="M45.5914 44.4333
L44.7164 45.3083
" />
<path d="M33.7164 14.9282
L37.9864 19.1982
" />
<path d="M45.0164 63.5082
L36.7764 55.2682
" />
<path d="M47.7464 42.2782
L45.5914 44.4333
" />
<path d="M63.7064 39.8083
L55.8064 39.8083
" />
<path d="M68.2964 50.9382
L61.7164 50.9382
" />
<path d="M27.8464 45.1382
L27.8464 55.0983
" />
<path d="M28.0164 55.2682
L30.2164 55.2682
" />
<path d="M27.4464 20.3082
L27.5064 20.2482
" />
<path d="M31.4164 14.9282
L33.7164 14.9282
" />
<path d="M54.1164 41.4982
L54.1164 42.2782
" />
<path d="M29.7664 43.2482
L29.7364 43.2482
" />
<path d="M47.7264 42.2982
L45.5914 44.4333
" />
<path d="M51.4314 16.8732
L51.4314 18.6232
" />
<path d="M61.7164 50.9382
L61.6764 50.8982
" />
<path d="M54.1164 42.2782
L47.7464 42.2782
" />
<path d="M26.2664 25.4682
L28.7364 27.9383
" />
<path d="M44.2914 19.2383
L44.2514 19.1982
" />
<path d="M27.8464 55.0983
L28.0164 55.2682
" />
<path d="M30.7164 42.2982
L29.7664 43.2482
" />
<path d="M40.2664 19.1982
L37.3064 19.1982
" />
<path d="M55.1764 61.0582
L55.1764 64.9682
" />
<path d="M50.6164 56.4982
L55.1764 61.0582
" />
<path d="M50.6164 46.3483
L50.6164 56.4982
" />
</g>
<g style="fill:none; 
stroke:#000000; stroke-width:0.2000; stroke-opacity:1; 
stroke-linecap:round; stroke-linejoin:round;">
<path d="M55.1764 64.9682
L55.1764 64.6282
" />
</g>
<g style="fill:none; 
stroke:#000000; stroke-width:1.0000; stroke-opacity:1; 
stroke-linecap:round; stroke-linejoin:round;">
<path d="M50.5164 46.2482
L50.6164 46.3483
" />
<path d="M50.0964 62.2482
L50.0964 64.9682
" />
<path d="M48.2864 60.4382
L50.0964 62.2482
" />
<path d="M30.2164 52.7682
L36.7064 52.7682
" />
<path d="M44.3764 60.4382
L48.2864 60.4382
" />
</g>
<g style="fill:none; 
stroke:#000000; stroke-width:0.2000; stroke-opacity:1; 
stroke-linecap:round; stroke-linejoin:round;">
<path d="M50.0964 64.9682
L50.0964 64.1482
" />
</g>
<g style="fill:none; 
stroke:#000000; stroke-width:1.0000; stroke-opacity:1; 
stroke-linecap:round; stroke-linejoin:round;">
<path d="M36.7064 52.7682
L44.3764 60.4382
" />
<path d="M35.8764 31.3182
L37.5064 29.6883
" />
<path d="M52.4864 21.7383
L44.2514 21.7383
" />
<path d="M37.5064 24.0382
L35.9664 22.4982
" />
<path d="M31.2764 22.8582
L31.6364 22.4982
" />
<path d="M35.9664 22.4982
L31.6364 22.4982
" />
<path d="M53.9714 20.2532
L52.4864 21.7383
" />
<path d="M53.9714 16.8732
L53.9714 20.2532
" />
<path d="M37.5064 29.6883
L37.5064 24.0382
" />
<path d="M31.2764 27.9383
L31.2764 22.8582
" />
<path d="M61.6764 59.7082
L61.6764 55.3982
" />
<path d="M60.2564 61.1282
L61.6764 59.7082
" />
<path d="M60.2564 64.9682
L60.2564 61.1282
" />
<path d="M30.2164 66.6882
L30.2164 57.7682
" />
<path d="M47.5564 66.8282
L44.8164 69.5682
" />
<path d="M33.0964 69.5682
L30.2164 66.6882
" />
<path d="M47.5564 64.9682
L47.5564 66.8282
" />
<path d="M44.8164 69.5682
L33.0964 69.5682
" />
<path d="M62.7964 62.5882
L62.7964 64.9682
" />
<path d="M68.2964 55.4382
L68.2964 57.0882
" />
<path d="M68.2964 57.0882
L62.7964 62.5882
" />
<path d="M56.5114 16.8732
L56.5114 25.1333
" />
<path d="M71.4964 27.9882
L71.5064 27.9982
" />
<path d="M75.0364 61.8682
L78.1764 58.7282
" />
<path d="M65.3364 63.4482
L66.9164 61.8682
" />
<path d="M66.9164 61.8682
L75.0364 61.8682
" />
<path d="M56.5114 25.1333
L56.9364 25.5582
" />
<path d="M59.3664 27.9882
L71.4964 27.9882
" />
<path d="M65.3364 64.9682
L65.3364 63.4482
" />
<path d="M56.9364 25.5582
L59.3664 27.9882
" />
<path d="M78.1764 58.7282
L78.1764 28.0083
" />
<path d="M62.1164 11.3282
L61.3764 10.5883
" />
<path d="M67.5564 14.5183
L64.3664 11.3282
" />
<path d="M29.9664 10.5682
L29.0564 10.5682
" />
<path d="M45.3914 10.5682
L29.9664 10.5682
" />
<path d="M31.4164 12.9283
L29.0364 10.5482
" />
<path d="M44.2514 11.7632
L45.3914 10.6232
" />
<path d="M44.2514 16.6582
L43.6664 16.6582
" />
<path d="M45.4114 10.5883
L45.3914 10.5682
" />
<path d="M45.3914 10.6232
L45.3914 10.5682
" />
<path d="M29.0564 10.5682
L29.0364 10.5482
" />
<path d="M67.5564 16.9482
L67.5564 14.5183
" />
<path d="M44.2514 16.6582
L44.2514 11.7632
" />
<path d="M61.3764 10.5883
L45.4114 10.5883
" />
<path d="M64.3664 11.3282
L62.1164 11.3282
" />
<path d="M13.0664 57.6882
L13.0864 57.6683
" />
<path d="M63.7264 37.2882
L73.1064 37.2882
" />
<path d="M73.1064 37.2882
L74.8764 35.5183
" />
<path d="M72.8064 17.0682
L70.2164 17.0682
" />
<path d="M63.7064 37.2682
L63.7264 37.2882
" />
<path d="M74.8764 19.1382
L72.8064 17.0682
" />
<path d="M70.2164 17.0682
L70.0964 16.9482
" />
<path d="M52.6364 61.7282
L48.6764 57.7682
" />
<path d="M48.6764 57.7682
L44.7164 57.7682
" />
<path d="M52.6364 64.9682
L52.6364 61.7282
" />
<path d="M63.7064 34.7282
L63.6564 34.6782
" />
<path d="M63.6564 34.6782
L54.1364 34.6782
" />
<path d="M54.1364 34.6782
L54.1164 34.6582
" />
</g>
<g style="fill:#FFFFFF; fill-opacity:1.0000; stroke:none;">
<circle cx="11.0964" cy="77.0982" r="0.4500" /> 
</g>
<g style="fill:#FFFFFF; fill-opacity:1.0000; stroke:none;">
<circle cx="33.1364" cy="77.1082" r="0.4500" /> 
</g>
<g style="fill:#FFFFFF; fill-opacity:1.0000; stroke:none;">
<circle cx="29.8964" cy="73.3582" r="0.4500" /> 
</g>
<g style="fill:#FFFFFF; fill-opacity:1.0000; stroke:none;">
<circle cx="20.8014" cy="73.0832" r="0.4500" /> 
</g>
<g style="fill:#FFFFFF; fill-opacity:1.0000; stroke:none;">
<circle cx="28.4764" cy="40.0782" r="0.4500" /> 
</g>
<g style="fill:#FFFFFF; fill-opacity:1.0000; stroke:none;">
<circle cx="22.7864" cy="40.0182" r="0.4500" /> 
</g>
<g style="fill:#FFFFFF; fill-opacity:1.0000; stroke:none;">
<circle cx="20.8864" cy="31.4482" r="0.4500" /> 
</g>
<g style="fill:#FFFFFF; fill-opacity:1.0000; stroke:none;">
<circle cx="35.8764" cy="31.3182" r="0.4500" /> 
</g>
<g style="fill:#FFFFFF; fill-opacity:1.0000; stroke:none;">
<circle cx="78.1764" cy="28.0083" r="0.4500" /> 
</g>
<g style="fill:#FFFFFF; fill-opacity:1.0000; stroke:none;">
<circle cx="71.5064" cy="27.9982" r="0.4500" /> 
</g>
<g style="fill:#FFFFFF; fill-opacity:1.0000; stroke:none;">
<circle cx="30.2164" cy="57.7682" r="0.5000" /> 
</g>
<g style="fill:#FFFFFF; fill-opacity:1.0000; stroke:none;">
<circle cx="30.2164" cy="52.7682" r="0.5000" /> 
</g>
<g style="fill:#FFFFFF; fill-opacity:1.0000; stroke:none;">
<circle cx="30.2164" cy="55.2682" r="0.5000" /> 
</g>
<g style="fill:none; 
stroke:#FFFFFF; stroke-width:2.0000; stroke-opacity:1; 
stroke-linecap:round; stroke-linejoin:round;">
<path d="M37.4664 60.8682
L37.9664 60.8682
" />
<path d="M37.4664 49.6683
L37.9664 49.6683
" />
</g>
<g style="fill:#FFFFFF; fill-opacity:1.0000; stroke:none;">
<circle cx="44.7164" cy="57.7682" r="0.5000" /> 
</g>
<g style="fill:#FFFFFF; fill-opacity:1.0000; stroke:none;">
<circle cx="44.7164" cy="52.7682" r="0.5000" /> 
</g>
<g style="fill:#FFFFFF; fill-opacity:1.0000; stroke:none;">
<circle cx="67.5564" cy="16.9482" r="0.5000" /> 
</g>
<g style="fill:#FFFFFF; fill-opacity:1.0000; stroke:none;">
<circle cx="70.0964" cy="16.9482" r="0.5000" /> 
</g>
<g style="fill:#FFFFFF; fill-opacity:1.0000; stroke:none;">
<circle cx="7.3764" cy="40.5182" r="0.5000" /> 
</g>
<g style="fill:#FFFFFF; fill-opacity:1.0000; stroke:none;">
<circle cx="7.3764" cy="43.0583" r="0.5000" /> 
</g>
<g style="fill:#FFFFFF; fill-opacity:1.0000; stroke:none;">
<circle cx="7.3764" cy="45.5983" r="0.5000" /> 
</g>
<g style="fill:#FFFFFF; fill-opacity:1.0000; stroke:none;">
<circle cx="7.3764" cy="48.1382" r="0.5000" /> 
</g>
<g style="fill:#FFFFFF; fill-opacity:1.0000; stroke:none;">
<circle cx="7.3764" cy="50.6782" r="0.5000" /> 
</g>
<g style="fill:#FFFFFF; fill-opacity:1.0000; stroke:none;">
<circle cx="7.3764" cy="53.2182" r="0.5000" /> 
</g>
<g style="fill:#FFFFFF; fill-opacity:1.0000; stroke:none;">
<circle cx="7.3764" cy="55.7582" r="0.5000" /> 
</g>
<g style="fill:#FFFFFF; fill-opacity:1.0000; stroke:none;">
<circle cx="7.3764" cy="58.2982" r="0.5000" /> 
</g>
<g style="fill:#FFFFFF; fill-opacity:1.0000; stroke:none;">
<circle cx="7.3764" cy="60.8382" r="0.5000" /> 
</g>
<g style="fill:#FFFFFF; fill-opacity:1.0000; stroke:none;">
<circle cx="7.3764" cy="63.3782" r="0.5000" /> 
</g>
<g style="fill:#FFFFFF; fill-opacity:1.0000; stroke:none;">
<circle cx="7.3764" cy="65.9183" r="0.5000" /> 
</g>
<g style="fill:#FFFFFF; fill-opacity:1.0000; stroke:none;">
<circle cx="7.3764" cy="68.4582" r="0.5000" /> 
</g>
<g style="fill:#FFFFFF; fill-opacity:1.0000; stroke:none;">
<circle cx="7.3764" cy="70.9982" r="0.5000" /> 
</g>
<g style="fill:#FFFFFF; fill-opacity:1.0000; stroke:none;">
<circle cx="7.3764" cy="73.5382" r="0.5000" /> 
</g>
<g style="fill:#FFFFFF; fill-opacity:1.0000; stroke:none;">
<circle cx="80.3364" cy="5.8483" r="2.0000" /> 
</g>
<g style="fill:#FFFFFF; fill-opacity:1.0000; stroke:none;">
<circle cx="44.2514" cy="16.6582" r="0.5500" /> 
</g>
<g style="fill:#FFFFFF; fill-opacity:1.0000; stroke:none;">
<circle cx="44.2514" cy="19.1982" r="0.5500" /> 
</g>
<g style="fill:#FFFFFF; fill-opacity:1.0000; stroke:none;">
<circle cx="44.2514" cy="21.7383" r="0.5500" /> 
</g>
<g style="fill:#FFFFFF; fill-opacity:1.0000; stroke:none;">
<circle cx="4.2564" cy="93.3182" r="2.0000" /> 
</g>
<g style="fill:#FFFFFF; fill-opacity:1.0000; stroke:none;">
<circle cx="13.0864" cy="65.2882" r="0.4000" /> 
</g>
<g style="fill:#FFFFFF; fill-opacity:1.0000; stroke:none;">
<circle cx="13.0864" cy="57.6683" r="0.4000" /> 
</g>
<g style="fill:#FFFFFF; fill-opacity:1.0000; stroke:none;">
<circle cx="20.4864" cy="54.6882" r="0.4000" /> 
</g>
<g style="fill:#FFFFFF; fill-opacity:1.0000; stroke:none;">
<circle cx="12.8664" cy="54.6882" r="0.4000" /> 
</g>
<g style="fill:#FFFFFF; fill-opacity:1.0000; stroke:none;">
<circle cx="63.7064" cy="34.7282" r="0.6000" /> 
</g>
<g style="fill:#FFFFFF; fill-opacity:1.0000; stroke:none;">
<circle cx="63.7064" cy="37.2682" r="0.6000" /> 
</g>
<g style="fill:#FFFFFF; fill-opacity:1.0000; stroke:none;">
<circle cx="63.7064" cy="39.8083" r="0.6000" /> 
</g>
<g style="fill:#FFFFFF; fill-opacity:1.0000; stroke:none;">
<circle cx="6.6564" cy="5.9582" r="2.0000" /> 
</g>
<g style="fill:#FFFFFF; fill-opacity:1.0000; stroke:none;">
<circle cx="37.3964" cy="64.9682" r="0.3000" /> 
</g>
<g style="fill:#FFFFFF; fill-opacity:1.0000; stroke:none;">
<circle cx="39.9364" cy="64.9682" r="0.3500" /> 
</g>
<g style="fill:#FFFFFF; fill-opacity:1.0000; stroke:none;">
<circle cx="42.4764" cy="64.9682" r="0.3500" /> 
</g>
<g style="fill:#FFFFFF; fill-opacity:1.0000; stroke:none;">
<circle cx="45.0164" cy="64.9682" r="0.3500" /> 
</g>
<g style="fill:#FFFFFF; fill-opacity:1.0000; stroke:none;">
<circle cx="47.5564" cy="64.9682" r="0.3500" /> 
</g>
<g style="fill:#FFFFFF; fill-opacity:1.0000; stroke:none;">
<circle cx="50.0964" cy="64.9682" r="0.3500" /> 
</g>
<g style="fill:#FFFFFF; fill-opacity:1.0000; stroke:none;">
<circle cx="52.6364" cy="64.9682" r="0.3500" /> 
</g>
<g style="fill:#FFFFFF; fill-opacity:1.0000; stroke:none;">
<circle cx="55.1764" cy="64.9682" r="0.3500" /> 
</g>
<g style="fill:#FFFFFF; fill-opacity:1.0000; stroke:none;">
<circle cx="57.7164" cy="64.9682" r="0.3500" /> 
</g>
<g style="fill:#FFFFFF; fill-opacity:1.0000; stroke:none;">
<circle cx="60.2564" cy="64.9682" r="0.3500" /> 
</g>
<g style="fill:#FFFFFF; fill-opacity:1.0000; stroke:none;">
<circle cx="62.7964" cy="64.9682" r="0.3500" /> 
</g>
<g style="fill:#FFFFFF; fill-opacity:1.0000; stroke:none;">
<circle cx="65.3364" cy="64.9682" r="0.3500" /> 
</g>
<g style="fill:#FFFFFF; fill-opacity:1.0000; stroke:none;">
<circle cx="67.8764" cy="64.9682" r="0.3500" /> 
</g>
<g style="fill:#FFFFFF; fill-opacity:1.0000; stroke:none;">
<circle cx="70.4164" cy="64.9682" r="0.3500" /> 
</g>
<g style="fill:#FFFFFF; fill-opacity:1.0000; stroke:none;">
<circle cx="72.9564" cy="64.9682" r="0.3500" /> 
</g>
<g style="fill:#FFFFFF; fill-opacity:1.0000; stroke:none;">
<circle cx="72.9564" cy="80.2082" r="0.3500" /> 
</g>
<g style="fill:#FFFFFF; fill-opacity:1.0000; stroke:none;">
<circle cx="70.4164" cy="80.2082" r="0.3500" /> 
</g>
<g style="fill:#FFFFFF; fill-opacity:1.0000; stroke:none;">
<circle cx="67.8764" cy="80.2082" r="0.3500" /> 
</g>
<g style="fill:#FFFFFF; fill-opacity:1.0000; stroke:none;">
<circle cx="65.3364" cy="80.2082" r="0.3500" /> 
</g>
<g style="fill:#FFFFFF; fill-opacity:1.0000; stroke:none;">
<circle cx="62.7964" cy="80.2082" r="0.3500" /> 
</g>
<g style="fill:#FFFFFF; fill-opacity:1.0000; stroke:none;">
<circle cx="60.2564" cy="80.2082" r="0.3500" /> 
</g>
<g style="fill:#FFFFFF; fill-opacity:1.0000; stroke:none;">
<circle cx="57.7164" cy="80.2082" r="0.3500" /> 
</g>
<g style="fill:#FFFFFF; fill-opacity:1.0000; stroke:none;">
<circle cx="55.1764" cy="80.2082" r="0.3500" /> 
</g>
<g style="fill:#FFFFFF; fill-opacity:1.0000; stroke:none;">
<circle cx="52.6364" cy="80.2082" r="0.3500" /> 
</g>
<g style="fill:#FFFFFF; fill-opacity:1.0000; stroke:none;">
<circle cx="50.0964" cy="80.2082" r="0.3500" /> 
</g>
<g style="fill:#FFFFFF; fill-opacity:1.0000; stroke:none;">
<circle cx="47.5564" cy="80.2082" r="0.3500" /> 
</g>
<g style="fill:#FFFFFF; fill-opacity:1.0000; stroke:none;">
<circle cx="45.0164" cy="80.2082" r="0.3500" /> 
</g>
<g style="fill:#FFFFFF; fill-opacity:1.0000; stroke:none;">
<circle cx="42.4764" cy="80.2082" r="0.3500" /> 
</g>
<g style="fill:#FFFFFF; fill-opacity:1.0000; stroke:none;">
<circle cx="39.9364" cy="80.2082" r="0.3500" /> 
</g>
<g style="fill:#FFFFFF; fill-opacity:1.0000; stroke:none;">
<circle cx="37.3964" cy="80.2082" r="0.3500" /> 
</g>
<g style="fill:#FFFFFF; fill-opacity:1.0000; stroke:none;">
<circle cx="20.4864" cy="51.6382" r="0.4000" /> 
</g>
<g style="fill:#FFFFFF; fill-opacity:1.0000; stroke:none;">
<circle cx="12.8664" cy="51.6382" r="0.4000" /> 
</g>
<g style="fill:#FFFFFF; fill-opacity:1.0000; stroke:none;">
<circle cx="31.6364" cy="22.4982" r="0.4000" /> 
</g>
<g style="fill:#FFFFFF; fill-opacity:1.0000; stroke:none;">
<circle cx="31.6364" cy="20.4982" r="0.4000" /> 
</g>
<g style="fill:none; 
stroke:#FFFFFF; stroke-width:1.0000; stroke-opacity:1; 
stroke-linecap:round; stroke-linejoin:round;">
<path d="M19.2664 19.7682
L19.2664 17.7682
" />
<path d="M13.2664 19.7682
L13.2664 17.7682
" />
<path d="M15.2664 14.0682
L17.2664 14.0682
" />
</g>
<g style="fill:#FFFFFF; fill-opacity:1.0000; stroke:none;">
<circle cx="51.4314" cy="16.8732" r="0.5000" /> 
</g>
<g style="fill:#FFFFFF; fill-opacity:1.0000; stroke:none;">
<circle cx="53.9714" cy="16.8732" r="0.5000" /> 
</g>
<g style="fill:#FFFFFF; fill-opacity:1.0000; stroke:none;">
<circle cx="56.5114" cy="16.8732" r="0.5000" /> 
</g>
<g style="fill:#FFFFFF; fill-opacity:1.0000; stroke:none;">
<circle cx="50.5164" cy="46.2482" r="0.4000" /> 
</g>
<g style="fill:#FFFFFF; fill-opacity:1.0000; stroke:none;">
<circle cx="50.5164" cy="38.6283" r="0.4000" /> 
</g>
<g style="fill:#FFFFFF; fill-opacity:1.0000; stroke:none;">
<circle cx="31.4164" cy="12.9283" r="0.4000" /> 
</g>
<g style="fill:#FFFFFF; fill-opacity:1.0000; stroke:none;">
<circle cx="31.4164" cy="14.9282" r="0.4000" /> 
</g>
<g style="fill:#FFFFFF; fill-opacity:1.0000; stroke:none;">
<circle cx="68.2964" cy="55.4382" r="0.5500" /> 
</g>
<g style="fill:#FFFFFF; fill-opacity:1.0000; stroke:none;">
<circle cx="74.7964" cy="55.4382" r="0.5500" /> 
</g>
<g style="fill:#FFFFFF; fill-opacity:1.0000; stroke:none;">
<circle cx="68.2964" cy="50.9382" r="0.5500" /> 
</g>
<g style="fill:#FFFFFF; fill-opacity:1.0000; stroke:none;">
<circle cx="74.7964" cy="50.9382" r="0.5500" /> 
</g>
<g style="fill:#FFFFFF; fill-opacity:1.0000; stroke:none;">
<circle cx="55.1764" cy="55.3982" r="0.5500" /> 
</g>
<g style="fill:#FFFFFF; fill-opacity:1.0000; stroke:none;">
<circle cx="61.6764" cy="55.3982" r="0.5500" /> 
</g>
<g style="fill:#FFFFFF; fill-opacity:1.0000; stroke:none;">
<circle cx="55.1764" cy="50.8982" r="0.5500" /> 
</g>
<g style="fill:#FFFFFF; fill-opacity:1.0000; stroke:none;">
<circle cx="61.6764" cy="50.8982" r="0.5500" /> 
</g>
<g style="fill:#FFFFFF; fill-opacity:1.0000; stroke:none;">
<circle cx="31.2764" cy="27.9383" r="0.5000" /> 
</g>
<g style="fill:#FFFFFF; fill-opacity:1.0000; stroke:none;">
<circle cx="28.7364" cy="27.9383" r="0.5000" /> 
</g>
<g style="fill:#FFFFFF; fill-opacity:1.0000; stroke:none;">
<circle cx="26.1964" cy="27.9383" r="0.5000" /> 
</g>
<g style="fill:#FFFFFF; fill-opacity:1.0000; stroke:none;">
<circle cx="23.6564" cy="27.9383" r="0.5000" /> 
</g>
<g style="fill:#FFFFFF; fill-opacity:1.0000; stroke:none;">
<circle cx="81.1164" cy="92.4882" r="2.0000" /> 
</g>
<g style="fill:#FFFFFF; fill-opacity:1.0000; stroke:none;">
<circle cx="20.4864" cy="48.5882" r="0.4000" /> 
</g>
<g style="fill:#FFFFFF; fill-opacity:1.0000; stroke:none;">
<circle cx="12.8664" cy="48.5882" r="0.4000" /> 
</g>
<g style="fill:#FFFFFF; fill-opacity:1.0000; stroke:none;">
<circle cx="62.1164" cy="11.3282" r="0.5500" /> 
</g>
<g style="fill:#FFFFFF; fill-opacity:1.0000; stroke:none;">
<circle cx="62.1164" cy="24.0282" r="0.5500" /> 
</g>
<g style="fill:#FFFFFF; fill-opacity:1.0000; stroke:none;">
<circle cx="20.4864" cy="45.5882" r="0.4000" /> 
</g>
<g style="fill:#FFFFFF; fill-opacity:1.0000; stroke:none;">
<circle cx="12.8664" cy="45.5882" r="0.4000" /> 
</g>
<g style="fill:#FFFFFF; fill-opacity:1.0000; stroke:none;">
<circle cx="54.1164" cy="42.2782" r="0.4000" /> 
</g>
<g style="fill:#FFFFFF; fill-opacity:1.0000; stroke:none;">
<circle cx="54.1164" cy="34.6582" r="0.4000" /> 
</g> 
</svg>
